<?xml version="1.0" encoding="utf-8"?>
<!-- Generator: Adobe Illustrator 21.0.0, SVG Export Plug-In . SVG Version: 6.00 Build 0)  -->
<svg version="1.1" id="Layer_1" xmlns="http://www.w3.org/2000/svg" xmlns:xlink="http://www.w3.org/1999/xlink" x="0px" y="0px"
	 viewBox="0 0 453 469" style="enable-background:new 0 0 453 469;" xml:space="preserve">
<style type="text/css">
	.st0{fill:#B7B9BA;}
	.st1{fill:#DDDEDE;}
	.st2{fill:#F8AA92;}
	.st3{fill:#A4A6A7;}
	.st4{fill:#44C0B8;}
	.st5{fill:#CFD1D2;}
	.st6{fill:#9A9C9D;}
	.st7{fill:#575B5D;}
	.st8{fill:#CFD0D1;}
</style>
<path class="st0" d="M351.7999878,239.1000061v-32.2000122c0-0.5999908,0.5-1.0999908,1.1000061-1.0999908h37.7000122
	c0.6000061,0,1.1000061,0.5,1.1000061,1.0999908v32.2000122c0,0.5999908-0.5,1.0999908-1.1000061,1.0999908h-37.7000122
	C352.2999878,240.1999969,351.7999878,239.6999969,351.7999878,239.1000061z M285,206v82.8999939
	C285,289.5,284.5,290,283.8999939,290h-6.5c-0.6000061,0-1.1000061,0.5-1.1000061,1.1000061v67.2999878l-12.3999939,0.8000183
	c-0.6000061,0-1.1000061-0.5-1.1000061-1.1000061V230.3999939c0-0.5999908-0.5-1.0999908-1.0999756-1.0999908h-9.4000092
	c-0.6000061,0-1.1000061-0.5-1.1000061-1.1000061v-22.0999908c0-0.6000061,0.5-1.1000061,1.1000061-1.1000061h31.4999847
	C284.5,205,285,205.5,285,206z"/>
<path class="st1" d="M189.5,176.3999939h2.1999969c3.1000061,0,5.6999969,2.5,5.6999969,5.7000122v178.6000061h-78.5999908
	c-3.1000061,0-5.7000046-2.5-5.7000046-5.7000122V182.1000061c0-3.1000061,2.5-5.7000122,5.7000046-5.7000122h3.5
	c3.0999985,0,5.6999969-2.5,5.6999969-5.6999969v-34.0999908c0-3.1000061,2.5-5.7000122,5.6999969-5.7000122
	c3.1000061,0,5.6999969-2.5,5.6999969-5.6999969v-4.8999939c0-3.1000061,2.5-5.7000046,5.7000122-5.7000046h19.5999908
	c3.1000061,0,5.6999969,2.5,5.6999969,5.7000046v4.8999939c0,3.1000061,2.5,5.6999969,5.7000122,5.6999969h2
	c3.0999908,0,5.6999969,2.5,5.6999969,5.7000122v34.0999908C183.8000031,173.8000031,186.3999939,176.3999939,189.5,176.3999939z"/>
<path class="st2" d="M409.2000122,274.9219971c0,0-41-2.3549805-41-0.0329895c0,5.6960144,1,60.0879822,1,60.0879822
	c-0.4760132,2.1000061-4.9110107,2.0140076-8.5900269,4.4920044c-4.0529785,2.730011-8.3579712,8.9299927-8.3579712,8.9299927
	c-1.428009,0-1.6980286-39.3299866-2.1740112-50.09198c0-1.2660217-0.07901-1.8990173-0.07901-3.1650085l1.0480042-36.0829773
	c-0.2380066-7.5960236-1.5239868-14.5600281-0.571991-14.5600281H403.29599
	C408.8510132,244.5,409.1210022,262.2619934,409.2000122,274.9219971z"/>
<path class="st3" d="M381.8999939,220.0749969H351c-0.7600098,0-1.375-0.6159973-1.375-1.375s0.6149902-1.375,1.375-1.375
	h30.8999939c0.7600098,0,1.375,0.6159973,1.375,1.375S382.6600037,220.0749969,381.8999939,220.0749969z M284.7999878,220.0749969
	h-23.6999817c-0.7600098,0-1.375-0.6159973-1.375-1.375s0.6149902-1.375,1.375-1.375h23.6999817
	c0.7600098,0,1.375,0.6159973,1.375,1.375S285.5599976,220.0749969,284.7999878,220.0749969z"/>
<path class="st4" d="M112.8000031,361.7999878c-1.1000061,6-5.6000061,9.5-11,10.8000183c-5,1.1999817-10,0-15-1.3999939
	L86.5,371.1000061c-0.5999985,5.1000061-3.6999969,10-7.8000031,13.1999817C73,388.7999878,65.5999985,390.5,58.4000015,391.3999939
	c-6.5,0.8000183-14.4000015,1-20.1000023-2.2999878l-0.5,1.7999878c0.7000008,3.7000122,0.1000023,7.7000122-1.5,11.1000061
	c-0.8999977,1.7999878-1.8999977,3.7000122-3.8999977,4.2999878C29.6000004,407.1000061,26.2999992,407,23.5,406.2000122
	c-3.5-1-6.7000008-3.2000122-8.3999996-6.4000244c-1.9000006-3.3999939-1.9000006-7.6999817-0.4000006-11.2999878
	c1.4000006-3.6000061,4.4000006-6.6000061,7.8000002-8.3999939c-6-5-8.6999998-13.6000061-6.8000002-21.2000122
	s8.4000006-13.7999878,16-15.5c-2.8000011-1.2999878-5-3.7999878-6-6.6999817c-1.2000008-3.5-0.5-7.4000244,0.5999985-10.9000244
	c1.9000015-6,6.2000008-10.3999939,10.9000015-14.2999878c2.5-2,5.2999992-3.7999878,8.2999992-4.8999939
	c2.9000015-1,6.5999985-0.3999939,9.2000008,1c2.8999977,1.5,5.0999985,4.1000061,5.5999985,7.3999939
	c0,0.3999939-0.2000008,2.2999878,0.2999992,2.5c3.8000031,0.6000061,7.7000046,2.1000061,10.5999985,4.6000061
	C73.0999985,323.7000122,75,325.6000061,76,327.8999939c2-2,4.4000015-3.6000061,6.9000015-4.8999939
	c3.0999985-1.5,6.6999969-2.5,9.7999954-1c3.2000046,1.5,4.8000031,5.3999939,4.4000015,9S94.8000031,337.7999878,92.5,340.5
	c2.0999985-0.1000061,3.8000031,1.8999939,4,4c0.0999985,2.1000061-1,4.1000061-2.4000015,5.6000061
	C95.5,348.7000122,99.1999969,348.5,101,348.5c2.4000015,0,4.9000015,0.6000061,6.9000015,1.8999939
	C111.5999985,352.7999878,113.5,357.7999878,112.8000031,361.7999878z"/>
<path class="st5" d="M312.7000122,293.8999939h-2c-1.4000244,0-2.5-1.1000061-2.5-2.5v-16.6000061
	c0-1.3999939,1.0999756-2.5,2.5-2.5h2c1.3999939,0,2.5,1.1000061,2.5,2.5V291.5
	C315.1000061,292.7999878,314,293.8999939,312.7000122,293.8999939z M100.0999985,310.875c-0.7589951,0-1.375-0.6149902-1.375-1.375
	v-38.625h-17.25V309.5c0,0.7600098-0.6159973,1.375-1.375,1.375c-0.7589951,0-1.375-0.6149902-1.375-1.375v-38.625h-17.25V309.5
	c0,0.7600098-0.6159973,1.375-1.375,1.375c-0.7589989,0-1.375-0.6149902-1.375-1.375v-38.625H45.9000015
	c-0.7590027,0-1.375-0.6149902-1.375-1.375s0.6159973-1.375,1.375-1.375h70.5c0.7589951,0,1.375,0.6149902,1.375,1.375
	s-0.6160049,1.375-1.375,1.375h-14.9250031V309.5C101.4749985,310.2600098,100.8590012,310.875,100.0999985,310.875z
	 M133,292.7749939c-0.7590027,0-1.375-0.6149902-1.375-1.375v-100.5c0-0.7589874,0.6159973-1.375,1.375-1.375
	s1.375,0.6160126,1.375,1.375v100.5C134.375,292.1600037,133.7590027,292.7749939,133,292.7749939z M87.4000015,244.875
	c-0.7590027,0-1.375-0.6150055-1.375-1.375v-33.1999969c0-0.7590027,0.6159973-1.375,1.375-1.375h22.2999954
	c0.7590027,0,1.375,0.6159973,1.375,1.375s-0.6159973,1.375-1.375,1.375H88.7750015V243.5
	C88.7750015,244.2599945,88.1589966,244.875,87.4000015,244.875z M228.3999939,221.0749969
	c-0.7599945,0-1.375-0.6159973-1.375-1.375v-39.8999939c0-0.7590027,0.6150055-1.375,1.375-1.375h15.9250031V173.5
	c0-0.7590027,0.6150055-1.375,1.375-1.375c0.7600098,0,1.375,0.6159973,1.375,1.375v4.9250031h4.8500061V166.5
	c0-0.7590027,0.6149902-1.375,1.375-1.375c0.7599945,0,1.375,0.6159973,1.375,1.375v11.9250031h16.2249908
	c0.7600098,0,1.375,0.6159973,1.375,1.375v17.5c0,0.7590027-0.6149902,1.375-1.375,1.375c-0.7599792,0-1.375-0.6159973-1.375-1.375
	v-16.125h-39.75v7.8499908h31.3250122c0.7599792,0,1.375,0.6160126,1.375,1.375c0,0.7590027-0.6150208,1.375-1.375,1.375H229.776001
	v27.9250031C229.7749939,220.4589996,229.1600037,221.0749969,228.3999939,221.0749969z M174.8000031,166.9750061
	c-0.7590027,0-1.375-0.6159973-1.375-1.375v-21.8000031c0-0.7590027,0.6159973-1.375,1.375-1.375s1.375,0.6159973,1.375,1.375
	v21.8000031C176.1750031,166.3590088,175.5590057,166.9750061,174.8000031,166.9750061z M164.8000031,166.9750061
	c-0.7590027,0-1.375-0.6159973-1.375-1.375v-21.8000031c0-0.7590027,0.6159973-1.375,1.375-1.375s1.375,0.6159973,1.375,1.375
	v21.8000031C166.1750031,166.3590088,165.5590057,166.9750061,164.8000031,166.9750061z M154.8000031,166.9750061
	c-0.7590027,0-1.375-0.6159973-1.375-1.375v-21.8000031c0-0.7590027,0.6159973-1.375,1.375-1.375s1.375,0.6159973,1.375,1.375
	v21.8000031C156.1750031,166.3590088,155.5590057,166.9750061,154.8000031,166.9750061z M144.8000031,166.9750061
	c-0.7590027,0-1.375-0.6159973-1.375-1.375v-21.8000031c0-0.7590027,0.6159973-1.375,1.375-1.375s1.375,0.6159973,1.375,1.375
	v21.8000031C146.1750031,166.3590088,145.5590057,166.9750061,144.8000031,166.9750061z M246,263.375
	c-0.7599945,0-1.375-0.6149902-1.375-1.375v-10.5c0-0.7599945,0.6150055-1.375,1.375-1.375s1.375,0.6150055,1.375,1.375V262
	C247.375,262.7600098,246.7599945,263.375,246,263.375z M233,263.375c-0.7599945,0-1.375-0.6149902-1.375-1.375v-10.5
	c0-0.7599945,0.6150055-1.375,1.375-1.375s1.375,0.6150055,1.375,1.375V262C234.375,262.7600098,233.7599945,263.375,233,263.375z
	 M220,263.375c-0.7590027,0-1.375-0.6149902-1.375-1.375v-10.5c0-0.7599945,0.6159973-1.375,1.375-1.375
	s1.375,0.6150055,1.375,1.375V262C221.375,262.7600098,220.7590027,263.375,220,263.375z M21.6000004,170.375
	c-0.3560009,0-0.7119999-0.1380005-0.9810009-0.4120026c-0.5319996-0.5419922-0.5229988-1.4129944,0.0180016-1.9449921
	c9.9339981-9.75,22.2959976-21.8829956,37.7529984-25.4580078c4.9249992-1.1149902,11.8410034-1.6080017,16.862999,2.3609924
	c2.3649979,1.8450012,3.9840012,4.3680115,5.5500031,6.809021c1.8880005,2.9419861,3.6699982,5.719986,6.5599976,7.0149841
	c4.8120041,2.2080078,10.4830017-1.0339966,13.4339981-3.1600037c0.9600067-0.6919861,1.9050064-1.4249878,2.852005-2.1589966
	c3.3509979-2.5979919,6.8149948-5.2839966,11.1189957-6.3599854c5.8960037-1.5280151,12.4940033,0.6669922,16.4000015,5.4659882
	c0.4790039,0.5890045,0.3909912,1.4550018-0.197998,1.9350128c-0.5890045,0.4789886-1.4550018,0.3909912-1.9349976-0.1980133
	c-3.1900024-3.9189911-8.7779999-5.7870026-13.5880051-4.5370026c-3.7549973,0.9389954-6.8430023,3.3330078-10.112999,5.8680115
	c-0.9720001,0.7539978-1.9420013,1.5059967-2.9280014,2.2160034c-3.4369965,2.4769897-10.1080017,6.2159882-16.177002,3.4349976
	c-3.6259995-1.625-5.7169952-4.8840027-7.7389984-8.0350037c-1.5080032-2.3500061-2.9319992-4.5690002-4.9339981-6.131012
	c-4.1750031-3.3009949-10.2159996-2.8249817-14.5499992-1.8429871C44.3089981,148.6409912,32.2529984,160.473999,22.566,169.9830017
	C22.2950001,170.2440033,21.948,170.375,21.6000004,170.375z M272.2999878,141.2749939h-17.1999817
	c-1.0210114,0-2.2940063,0-3.428009-0.7089844c-1.9850006-1.2210083-2.1529999-3.7280121-2.2440033-5.0740051
	c-0.1889954-1.7940063-0.2899933-3.70401-0.3869934-5.5500031l-0.0140076-0.2700043
	c-0.0919952-1.0849915-0.1819916-2.1639938-0.7009888-2.8129959c-0.7640076-0.9800034-2.3450012-1.1849976-4.7080078-0.6220016
	c-7.0709991,1.8619995-13.1230011,6.8309937-19.2089996,12.1940002c-0.5699921,0.5010071-1.4380035,0.4459991-1.9409943-0.1230011
	c-0.5019989-0.5699921-0.4470062-1.4380035,0.1230011-1.9409943c6.3439941-5.5899963,12.673996-10.7750015,20.3589935-12.7980042
	c3.5400085-0.8440018,6.0640106-0.3069992,7.5350037,1.5849991c1.0310059,1.2890015,1.1679993,2.9280014,1.2779999,4.2450027
	c0.0010071,0.0139923,0.0090027,0.1129913,0.0099945,0.1269989l0.0149994,0.2689972
	c0.0950012,1.8119965,0.1920013,3.6840057,0.3790131,5.4579926c0.0839996,1.2310181,0.2289886,2.5270081,0.9529877,2.9730072
	c0.4750061,0.2960052,1.2389984,0.2960052,1.9790039,0.2960052h17.2000122c0.7599792,0,1.375,0.6159973,1.375,1.375
	S273.0599976,141.2749939,272.2999878,141.2749939z M383.9819946,93.3130035c-0.7999878,0-1.8540039-0.1590042-2.4970093-0.8850021
	c-0.6599731-0.6969986-0.6599731-1.6160049-0.6599731-2.2289963c0.0479736-1.7810059,0.2839966-3.4940033,0.5139771-5.151001
	c0.276001-2.0019989,0.5380249-3.8940048,0.4869995-5.8120041c-0.0820007-2.9990005-1.1679993-6.7340012-3.9709778-8.2229996
	c-2.7190247-1.451004-6.3520203-0.5830002-8.8460083,0.197998c-11.8970032,3.6679993-22.57901,10.4169998-30.8959961,19.5160065
	c-0.5119934,0.5619965-1.3829956,0.5979919-1.9420166,0.0869904c-0.5610046-0.5130005-0.5999756-1.3819962-0.0869751-1.9429932
	c8.6459961-9.4600067,19.7489929-16.4759979,32.1089783-20.2870026c2.9609985-0.9259949,7.322998-1.9349976,10.9530029,0.0009995
	c3.2650146,1.7340012,5.2940063,5.6879959,5.427002,10.5759964c0.0589905,2.1450043-0.2309875,4.2380066-0.5119934,6.2630005
	c-0.2290039,1.6549988-0.4450073,3.2190094-0.4869995,4.8110046c0,0.076004,0,0.1909943,0.0039978,0.2929993
	c0.2250061,0.0319977,0.57901,0.0370026,0.8540039,0.0050049c0.04599-0.0060043,0.0979919-0.0090027,0.1459961-0.0100098
	l26.5-0.3999939c0.7980042,0.0019989,1.3829956,0.5950012,1.3959961,1.3540039
	c0.0119934,0.7589951-0.5950012,1.3839951-1.3540039,1.3959961l-26.4289856,0.397995
	C384.5029907,93.2949982,384.2579956,93.3130035,383.9819946,93.3130035z M156.901001,83.875
	c-0.1199951,0-0.2420044-0.0159988-0.3630066-0.048996c-0.7289886-0.1990051-1.1609955-0.9490051-0.9669952-1.6800079
	c2.0590057-7.7429962,2.9519958-15.7829971,2.6549988-23.8959961l-0.0209961-0.5940018
	c-0.2380066-6.7589989-0.9389954-14.0249977-6.2750092-14.6919975c-5.5439911-0.6970024-14.6919861,4.9399986-19.6049957,7.9729996
	l-0.7039948,0.4340019c-11.3190002,6.8600006-22.0190048,17.1469955-32.7200012,31.4530029
	c-0.4550018,0.6079941-1.3170013,0.7319946-1.9250031,0.2769928s-0.7319946-1.3159943-0.2770004-1.9250031
	c10.9160004-14.5929947,21.8700027-25.109993,33.487999-32.1519928l0.6930084-0.4280014
	c5.5669861-3.4360008,14.8789978-9.1889992,21.3929901-8.3610001c8.1040039,1.0130005,8.4790039,11.6240005,8.6800079,17.3239975
	l0.0209961,0.5890045c0.227005,6.2009964-0.2189941,12.359993-1.3269958,18.3850021
	c0.6620026-0.6480103,1.3269958-1.2610016,1.9309998-1.8180084c0.3209991-0.2959976,0.6170044-0.5690002,0.8759918-0.8139954
	c6.2170105-6.3110046,18.3670044-16.8970032,29.4860077-16.5760002c4.2910004,0.1069984,7.4729919,3.0169983,8.5029907,7.7840004
	c0.9150085,4.2089996,1.1040039,8.8120041,0.5510101,13.1289978c0.6149902,0.0100021,1.2249908,0.0230026,1.8349915,0.0370026
	c1.1150055,0.0250015,2.230011,0.0499954,3.3700104,0.0499954h44.5c0.7599945,0,1.375,0.6160049,1.375,1.375
	c0,0.7590027-0.6150055,1.375-1.375,1.375h-44.5c-1.1610107,0-2.2949982-0.0249939-3.4309998-0.0499954
	c-1.1150055-0.0250015-2.230011-0.0500031-3.3700104-0.0500031c-0.4059906,0-0.7910004-0.1789932-1.052002-0.4899979
	c-0.2609863-0.3110046-0.371994-0.7210007-0.3019867-1.1210022c0.7689972-4.4209976,0.6669922-9.2770004-0.2890015-13.6719971
	c-0.3580017-1.6549988-1.6470032-5.5110016-5.8910065-5.6170006c-10.4599915-0.3060036-22.7079926,10.9399986-27.4859924,15.7900047
	c-0.3000031,0.2859955-0.6060028,0.5679932-0.9370117,0.8729935c-1.7659912,1.6290054-4.720993,4.3550034-5.2189941,6.1340027
	C158.0540009,83.4779968,157.5019989,83.875,156.901001,83.875z M335.3999939,266.375h-35.6999817
	c-0.7600098,0-1.375-0.6149902-1.375-1.375s0.6149902-1.375,1.375-1.375h35.6999817c0.7600098,0,1.375,0.6149902,1.375,1.375
	S336.1600037,266.375,335.3999939,266.375z M335.3999939,240.9750061h-35.6999817c-0.7600098,0-1.375-0.6150055-1.375-1.375
	c0-0.7600098,0.6149902-1.375,1.375-1.375h35.6999817c0.7600098,0,1.375,0.6149902,1.375,1.375
	C336.7749939,240.3600006,336.1600037,240.9750061,335.3999939,240.9750061z M335.3999939,215.5749969h-35.6999817
	c-0.7600098,0-1.375-0.6159973-1.375-1.375s0.6149902-1.375,1.375-1.375h35.6999817c0.7600098,0,1.375,0.6159973,1.375,1.375
	S336.1600037,215.5749969,335.3999939,215.5749969z M335.3999939,190.1750031h-35.6999817c-0.7600098,0-1.375-0.6159973-1.375-1.375
	s0.6149902-1.375,1.375-1.375h35.6999817c0.7600098,0,1.375,0.6159973,1.375,1.375S336.1600037,190.1750031,335.3999939,190.1750031
	z M335.3999939,164.7749939h-35.6999817c-0.7600098,0-1.375-0.6159973-1.375-1.375s0.6149902-1.375,1.375-1.375h35.6999817
	c0.7600098,0,1.375,0.6159973,1.375,1.375S336.1600037,164.7749939,335.3999939,164.7749939z M335.3999939,139.375h-35.6999817
	c-0.7600098,0-1.375-0.6159973-1.375-1.375s0.6149902-1.375,1.375-1.375h35.6999817c0.7600098,0,1.375,0.6159973,1.375,1.375
	S336.1600037,139.375,335.3999939,139.375z M246,345.375c-0.7599945,0-1.375-0.6149902-1.375-1.375v-10.5
	c0-0.7600098,0.6150055-1.375,1.375-1.375s1.375,0.6149902,1.375,1.375V344C247.375,344.7600098,246.7599945,345.375,246,345.375z
	 M233,345.375c-0.7599945,0-1.375-0.6149902-1.375-1.375v-10.5c0-0.7600098,0.6150055-1.375,1.375-1.375
	s1.375,0.6149902,1.375,1.375V344C234.375,344.7600098,233.7599945,345.375,233,345.375z M220,345.375
	c-0.7590027,0-1.375-0.6149902-1.375-1.375v-10.5c0-0.7600098,0.6159973-1.375,1.375-1.375s1.375,0.6149902,1.375,1.375V344
	C221.375,344.7600098,220.7590027,345.375,220,345.375z M246,299.375c-0.7599945,0-1.375-0.6149902-1.375-1.375v-10.5
	c0-0.7600098,0.6150055-1.375,1.375-1.375s1.375,0.6149902,1.375,1.375V298C247.375,298.7600098,246.7599945,299.375,246,299.375z
	 M233,299.375c-0.7599945,0-1.375-0.6149902-1.375-1.375v-10.5c0-0.7600098,0.6150055-1.375,1.375-1.375
	s1.375,0.6149902,1.375,1.375V298C234.375,298.7600098,233.7599945,299.375,233,299.375z M220,299.375
	c-0.7590027,0-1.375-0.6149902-1.375-1.375v-10.5c0-0.7600098,0.6159973-1.375,1.375-1.375s1.375,0.6149902,1.375,1.375V298
	C221.375,298.7600098,220.7590027,299.375,220,299.375z M246,278.7749939c-0.7599945,0-1.375-0.6149902-1.375-1.375v-5.1999817
	c0-0.7600098,0.6150055-1.375,1.375-1.375s1.375,0.6149902,1.375,1.375v5.1999817
	C247.375,278.1600037,246.7599945,278.7749939,246,278.7749939z M233,278.7749939c-0.7599945,0-1.375-0.6149902-1.375-1.375
	v-5.1999817c0-0.7600098,0.6150055-1.375,1.375-1.375s1.375,0.6149902,1.375,1.375v5.1999817
	C234.375,278.1600037,233.7599945,278.7749939,233,278.7749939z M220,278.7749939c-0.7590027,0-1.375-0.6149902-1.375-1.375
	v-5.1999817c0-0.7600098,0.6159973-1.375,1.375-1.375s1.375,0.6149902,1.375,1.375v5.1999817
	C221.375,278.1600037,220.7590027,278.7749939,220,278.7749939z M435.5,298.6749878h-9.6000061
	c-0.7599792,0-1.375-0.6149902-1.375-1.375c0-0.7599792,0.6150208-1.375,1.375-1.375H435.5c0.7600098,0,1.375,0.6150208,1.375,1.375
	C436.875,298.0599976,436.2600098,298.6749878,435.5,298.6749878z M415.5,298.6749878h-9.6000061
	c-0.7599792,0-1.375-0.6149902-1.375-1.375c0-0.7599792,0.6150208-1.375,1.375-1.375H415.5c0.7600098,0,1.375,0.6150208,1.375,1.375
	C416.875,298.0599976,416.2600098,298.6749878,415.5,298.6749878z M395.5,298.6749878h-9.6000061
	c-0.7599792,0-1.375-0.6149902-1.375-1.375c0-0.7599792,0.6150208-1.375,1.375-1.375H395.5c0.7600098,0,1.375,0.6150208,1.375,1.375
	C396.875,298.0599976,396.2600098,298.6749878,395.5,298.6749878z M435.5,290.6749878h-9.6000061
	c-0.7599792,0-1.375-0.6149902-1.375-1.375s0.6150208-1.375,1.375-1.375H435.5c0.7600098,0,1.375,0.6149902,1.375,1.375
	S436.2600098,290.6749878,435.5,290.6749878z M415.5,290.6749878h-9.6000061c-0.7599792,0-1.375-0.6149902-1.375-1.375
	s0.6150208-1.375,1.375-1.375H415.5c0.7600098,0,1.375,0.6149902,1.375,1.375S416.2600098,290.6749878,415.5,290.6749878z
	 M395.5,290.6749878h-9.6000061c-0.7599792,0-1.375-0.6149902-1.375-1.375s0.6150208-1.375,1.375-1.375H395.5
	c0.7600098,0,1.375,0.6149902,1.375,1.375S396.2600098,290.6749878,395.5,290.6749878z M186,292.7749939
	c-0.7590027,0-1.375-0.6149902-1.375-1.375v-100.5c0-0.7589874,0.6159973-1.375,1.375-1.375s1.375,0.6160126,1.375,1.375v100.5
	C187.375,292.1600037,186.7590027,292.7749939,186,292.7749939z M172.6999969,292.7749939c-0.7590027,0-1.375-0.6149902-1.375-1.375
	v-100.5c0-0.7589874,0.6159973-1.375,1.375-1.375s1.375,0.6160126,1.375,1.375v100.5
	C174.0749969,292.1600037,173.4589996,292.7749939,172.6999969,292.7749939z M159.5,292.7749939
	c-0.7590027,0-1.375-0.6149902-1.375-1.375v-100.5c0-0.7589874,0.6159973-1.375,1.375-1.375s1.375,0.6160126,1.375,1.375v100.5
	C160.875,292.1600037,160.2590027,292.7749939,159.5,292.7749939z M146.1999969,292.7749939
	c-0.7590027,0-1.375-0.6149902-1.375-1.375v-100.5c0-0.7589874,0.6159973-1.375,1.375-1.375s1.375,0.6160126,1.375,1.375v100.5
	C147.5749969,292.1600037,146.9589996,292.7749939,146.1999969,292.7749939z M116.4000015,264.875h-70.5
	c-0.7590027,0-1.375-0.6149902-1.375-1.375s0.6159973-1.375,1.375-1.375h70.5c0.7589951,0,1.375,0.6149902,1.375,1.375
	S117.1589966,264.875,116.4000015,264.875z"/>
<path class="st6" d="M329.3999939,359.2999878h-53.6000061c-2.6999817,0-4.8999939-2.1999817-4.8999939-4.8999939v-61.1000061
	c0-2.6999817,2.2000122-4.8999939,4.8999939-4.8999939h53.6000061c2.7000122,0,4.8999939,2.2000122,4.8999939,4.8999939v61.1000061
	C334.3999939,357,332.1000061,359.2999878,329.3999939,359.2999878z"/>
<path class="st7" d="M352.2000122,360.2749939H140.1000061c-0.7590027,0-1.375-0.6149902-1.375-1.375
	c0-0.7599792,0.6159973-1.375,1.375-1.375h212.1000061c0.7599792,0,1.375,0.6150208,1.375,1.375
	C353.5750122,359.6600037,352.9599915,360.2749939,352.2000122,360.2749939z M339.6000061,311.7749939
	c-0.7600098,0-1.375-0.6149902-1.375-1.375V290.473999h-60.6490173v19.7260132c0,0.7599792-0.6149902,1.375-1.375,1.375
	c-0.7599792,0-1.375-0.6150208-1.375-1.375v-21.1000061c0-0.7600098,0.6150208-1.375,1.375-1.375h63.3990173
	c0.7599792,0,1.375,0.6149902,1.375,1.375v21.2999878C340.9750061,311.1600037,340.3590088,311.7749939,339.6000061,311.7749939z
	 M263.1000061,241.9750061h-60.2000122c-0.7589874,0-1.375-0.6150055-1.375-1.375c0-0.7600098,0.6160126-1.375,1.375-1.375
	h60.2000122c0.7599792,0,1.375,0.6149902,1.375,1.375C264.4750061,241.3600006,263.8590088,241.9750061,263.1000061,241.9750061z
	 M391.8999939,232.7749939c-0.7599792,0-1.375-0.6149902-1.375-1.375V206.375h-39.125c-0.7599792,0-1.375-0.6159973-1.375-1.375
	s0.6150208-1.375,1.375-1.375h40.5c0.7600098,0,1.375,0.6159973,1.375,1.375v26.3999939
	C393.2749939,232.1600037,392.6600037,232.7749939,391.8999939,232.7749939z M252.3000031,228.7749939
	c-0.7600098,0-1.375-0.6149902-1.375-1.375v-21.2999878c0-0.7590027,0.6149902-1.375,1.375-1.375h32.9999847
	c0.7600098,0,1.375,0.6159973,1.375,1.375c0,0.7589874-0.6149902,1.375-1.375,1.375h-31.6249847v19.9249878
	C253.6750031,228.1600037,253.0599976,228.7749939,252.3000031,228.7749939z M176.3000031,131.4750061
	c-0.7590027,0-1.375-0.6159973-1.375-1.375v-14.4250031h-29.9499969v14.4250031c0,0.7590027-0.6160126,1.375-1.375,1.375
	c-0.7590027,0-1.375-0.6159973-1.375-1.375v-15.8000031c0-0.7590027,0.6159973-1.375,1.375-1.375h32.6999969
	c0.7590027,0,1.375,0.6159973,1.375,1.375v15.8000031C177.6750031,130.8590088,177.0590057,131.4750061,176.3000031,131.4750061z
	 M29.0620003,378.8439941c0.8689995-0.0979919,3.0209999-0.3359985,4.656002-0.1560059
	c2.5619965,0.2810059,7.2809982,2.5210266,10.3999977,7.776001c0.2490005,0.4190063,0.9210014,1.2420044,1.4640007,1.6610107
	c3.0830002,2.375,4.598999,2.3789978,8.3610001,2.7399902l2.8019981,0.1480103
	c1.913002,0.0220032,4.7299995-0.0410156,8.0980034-0.4790039c7.1989975-0.9370117,13.711998-2.2659912,19.6039963-6.8129883
	c4.9160004-3.7940063,8.8339996-11.059021,6.836998-17.6199951c-0.6529999-2.3310242-2.1159973-4.3910217-3.9229965-5.5400085
	c-1.9990005-1.2709961-4.3700027-1.54599-6.189003-0.7109985c-0.5809937,0.2649841-1.2679977,0.0979919-1.6589966-0.4070129
	s-0.3840027-1.2129822,0.0189972-1.7089844c3.6010056-4.4389954,5.2030029-8.3380127,4.8970032-11.9160156
	c-0.4179993-4.348999-4.0060043-8.3849792-8.7250061-9.7999878c-4.321991-1.2980042-9.3939972-0.5410156-13.916996,2.072998
	c-0.5839996,0.3370056-1.3239975,0.2009888-1.75-0.3170166c-0.4269981-0.519989-0.4160004-1.2719727,0.0270004-1.7779846
	c4.6529961-5.3190002,6.8120003-12.605011,5.7750053-19.4899902c-0.451004-2.8160095-1.3059998-4.8260193-2.6120033-6.132019
	c-0.8199997-0.8200073-2.0180016-1.5119934-3.2060013-1.8509827c-3.7190018-1.1830139-8.2579994-0.381012-12.1800003,2.1349792
	c-3.8309975,2.3580017-6.8100014,6.1450195-9.2209969,9.5390015c-0.4400024,0.6199951-1.2990036,0.7650146-1.9170036,0.3250122
	c-0.6189995-0.4400024-0.7639999-1.2990112-0.3250008-1.9169922c2.0040016-2.8210144,4.3899994-5.9049988,7.3470001-8.3600159
	v-0.0440063v-55.8999939c0-0.7599945,0.6160011-1.375,1.375-1.375h10.9250031v-8.2259979c0-0.7599945,0.6159973-1.375,1.375-1.375
	h45.9000015c0.7589951,0,1.375,0.6150055,1.375,1.375v8.2250061h11.25V176c0-0.7590027,0.6159973-1.375,1.375-1.375h12.7249908
	v-44.4250031c0-0.7589874,0.6159973-1.375,1.375-1.375h57c0.7590027,0,1.375,0.6160126,1.375,1.375V174.625h12.8250122
	c0.7589874,0,1.375,0.6159973,1.375,1.375v50.2250061h4.75v-4.9250031c0-0.7590027,0.6159973-1.375,1.375-1.375h26
	c0.7599945,0,1.375,0.6159973,1.375,1.375v4.9250031h26.7250061c0.7600098,0,1.375,0.6149902,1.375,1.375V309.5
	c0,0.7600098-0.6149902,1.375-1.375,1.375s-1.375-0.6149902-1.375-1.375v-80.5249939h-58.8500061v99.6090088
	c0.0639954,0.1589966,0.0999908,0.3329773,0.0999908,0.5159912v29.6000061c0,0.7599792-0.6159973,1.375-1.375,1.375
	s-1.375-0.6150208-1.375-1.375v-27.3850098c-0.0639954-0.1589966-0.0999908-0.3330078-0.0999908-0.5159912V190.6750031h-82.5500031
	v162.3359833c1.8600006,2.7950134,2.7009964,6.3650208,2.0759964,9.6470032
	c-1.086998,5.927002-5.3509979,10.1470032-12.0049973,11.8730164c-5.0429993,1.2109985-10.0610046,0.0769958-14.5730057-1.105011
	c-0.9939957,4.6560059-3.8209991,9.2120056-8.0319977,12.4630127c-6.3399963,5.0059814-14.538002,6.571991-20.9699936,7.3760071
	c-2.8730049,0.3289795-6.0480042,0.5839844-9.2100067,0.4779968c-0.3519974,0.9789734-0.75,1.8619995-1.1479988,2.6069946
	c-0.3590012,0.6679993-1.1889992,0.92099-1.8590012,0.5619812c-0.6689987-0.3559875-0.9219971-1.1889954-0.5659981-1.8589783
	c0.0519981-0.0980225,0.3400002-0.651001,0.6870003-1.5169983c-2.5540009-0.2870178-5.0419998-0.8720093-7.2989998-1.9110107
	c0.5750008,3.6820068,0.0329971,7.631012-1.625,11.2479858c-0.7020035,1.5040283-1.7460022,3.3680115-3.6430016,4.506012
	c-0.2209969,0.1329956-0.4650002,0.1960144-0.7059975,0.1960144c-0.4670029,0-0.9220047-0.2369995-1.1800003-0.6670227
	c-0.3909988-0.651001-0.1800003-1.4960022,0.4710007-1.8869934c1.25-0.75,1.9959984-2.0910034,2.5619965-3.303009
	c2.1220016-4.6279907,2.1310005-9.8619995,0.0210037-13.993988c-2.2310028-4.2770081-6.7070007-7.1000061-11.4920025-6.3619995
	C26.6819992,381.9020081,27.4060001,379.0310059,29.0620003,378.8439941z M94.5419998,370.6799927
	c4.2829971,1.1289978,9.0490036,2.2600098,13.5370026,1.184021c3.9089966-1.0140076,8.8339996-3.5270081,9.9679947-9.7109985
	c0.0880051-0.4630127,0.1380005-0.9350281,0.151001-1.4120178c-0.2409973,0.2090149-0.5550003,0.3349915-0.8989944,0.3349915
	c-0.7590027,0-1.375-0.6149902-1.375-1.375v-5.7919922c-0.6000061-0.7709961-1.302002-1.4400024-2.0870056-1.9649963
	c-1.9759979-1.3819885-4.4259949-1.6679993-6.137001-1.6679993c-2.7589951,0-5.1279984,0.4519958-5.8379974,1.105011
	c-0.0299988,0.0299988-0.0599976,0.0619812-0.0899963,0.09198c-0.5300064,0.5280151-1.387001,0.5370178-1.9260025,0.0180054
	c-0.5400009-0.5209961-0.5630035-1.3769836-0.0540009-1.9259949c0.0410004-0.0440063,0.0830002-0.0870056,0.1259995-0.1289978
	c1.3519974-1.3900146,2.0480042-2.9890137,1.9140015-4.4049988c-0.1289978-1.3540039-1.1989975-2.802002-2.5650024-2.757019
	c-0.5479965,0.0210266-1.0509949-0.2709961-1.2939987-0.7559814c-0.2440033-0.4850159-0.1790009-1.0690002,0.1660004-1.4899902
	c2.6200027-3.1890259,3.9840012-5.9790039,4.2949982-8.7780151c0.3120041-2.7210083-0.8509979-6.3080139-3.6169968-7.6040039
	c-2.7890015-1.3479919-6.215004-0.2080078-8.602005,0.9840088c-2.6209946,1.3630066-4.8289948,2.928009-6.5419998,4.6430054
	c-0.3269958,0.3259888-0.7959976,0.4719849-1.2489929,0.3739929c-0.4530029-0.0930176-0.8290024-0.4070129-1-0.8359985
	c-0.4960022-1.2399902-1.3410034-2.3699951-2.5110016-3.3600159c-0.5800018-0.4899902-0.6520004-1.3569946-0.1620026-1.9379883
	c0.4909973-0.5799866,1.3570023-0.6530151,1.9380035-0.1619873c0.973999,0.822998,1.7779999,1.7319946,2.4049988,2.7179871
	c1.663002-1.4190063,3.6309967-2.7229919,5.8730011-3.8880005c4.2309952-2.1149902,8.0419998-2.4679871,11.0329971-1.0180054
	c3.9550018,1.8540039,5.5970001,6.6340027,5.1669998,10.3940125c-0.3809967,3.4279785-2.0090027,6.3330078-3.5940018,8.526001
	c1.7040024,0.9199829,2.8199997,2.8329773,2.9970016,4.6869812c0.0950012,0.9930115-0.0370026,2-0.3789978,2.9869995
	c1.1839981-0.1749878,2.4150009-0.2309875,3.5099945-0.2309875c3.0210037,0,5.6800003,0.7430115,7.6880035,2.1470032
	c0.1829987,0.1220093,0.3610001,0.2489929,0.5370026,0.3819885v-94.3799896H46.4760017v52.5930023
	c4.5619965-2.8890076,9.9229965-3.78302,14.3419991-2.3779907c1.6009979,0.4559937,3.2029953,1.3859863,4.3550034,2.5379944
	c1.7299957,1.7299805,2.8379974,4.2339783,3.385994,7.6539917c0.9039993,6.0050049-0.362999,12.2709961-3.4289932,17.5469971
	c3.8449936-1.2049866,7.8089905-1.3120117,11.3659973-0.2460022c5.8519974,1.756012,10.1419983,6.6530151,10.6729965,12.1860046
	c0.2990036,3.5069885-0.8199997,7.1459961-3.4109955,11.0639954c1.7259979,0.0580139,3.5,0.6019897,5.0809937,1.6069946
	c2.3970032,1.5250244,4.2509995,4.1090088,5.0860062,7.0890198
	C94.4459991,367.0429993,94.6429977,368.8510132,94.5419998,370.6799927z M58.7750015,252.9250031h43.1500015v-6.8500061H58.7750015
	V252.9250031z M211.4750061,226.2250061h23.25v-3.5500031h-23.25V226.2250061z M118.6750031,187.9250031h82.5500031V177.375
	h-82.5500031V187.9250031z M132.7749939,174.625h54.25v-29.9499969H133c-0.0769958,0-0.1520081-0.0059967-0.2250061-0.0189972
	V174.625z M132.7749939,131.5749969v10.3679962c0.072998-0.0119934,0.1480103-0.0189819,0.2250061-0.0189819h54.0249939v-10.3500061
	h-54.25V131.5749969z M395.2980042,387.7749939c-0.7090149,0-1.3110046-0.5449829-1.3680115-1.2649841
	c-0.5769958-7.1570129,1.4429932-14.3269958,5.4049988-19.1800232c2.5639954-3.223999,5.9930115-5.2609863,9.3959961-5.5769958
	c1.82901-0.1699829,3.6190186,0.1520081,5.2860107,0.9400024c0.1069946-0.1539917,0.2149963-0.2969971,0.3120117-0.427002
	l0.0690002-0.09198c1.4140015-1.7420044,3.1300049-3.5740051,5.3869934-4.2870178
	c3.0610046-0.9440002,6.5549927,0.2919922,8.7019958,3.0700073c0.4649963,0.6010132,0.3540039,1.4649963-0.2470093,1.9289856
	c-0.598999,0.4640198-1.4649963,0.3540039-1.9289856-0.2469788c-1.428009-1.8470154-3.7709961-2.7220154-5.7080078-2.1260071
	c-1.5509949,0.4890137-2.8569946,1.8999939-4.0369873,3.3529968l-0.0410156,0.0559998
	c-0.0509949,0.0670166-0.1149902,0.1520081-0.1799927,0.2420044c0.1180115,0.0960083,0.2359924,0.1940002,0.3529968,0.2950134
	c0.5740051,0.4969788,0.6380005,1.3649902,0.1409912,1.9389954c-0.4969788,0.5739746-1.3649902,0.6369934-1.9389954,0.1409912
	c-1.7980042-1.5570068-3.7839966-2.2409973-5.9140015-2.0480042c-2.6619873,0.2470093-5.3979797,1.9110107-7.5099792,4.5639954
	c-3.4820251,4.2650146-5.3200073,10.8630066-4.8070068,17.2330017c0.0619812,0.757019-0.5030212,1.4200134-1.2600098,1.480011
	C395.3729858,387.7739868,395.3349915,387.7749939,395.2980042,387.7749939z M374.82901,386.2569885
	c-10.9670105,0-17.6970215-4.2819824-20.0550232-12.789978c-0.9339905-3.4260254-0.4129944-8.03302,1.210022-10.7230225
	c0.368988-0.6119995,0.7909851-1.1149902,1.2519836-1.4960022c-1.3869934-3.0979919-2.8909912-9.7909851,1.2740173-15.1879883
	c3.9249878-5.1679993,10.1730042-7.2139893,15.6349792-5.4960022c-1.3649902-4.5189819-2.2269897-11.6260071,0.6140137-17.5589905
	c3.723999-7.6610107,13.1210022-14.802002,23.1879883-12.9580078c0.7470093,0.1369934,1.2420044,0.8529968,1.105011,1.6000061
	c-0.1369934,0.7479858-0.8590088,1.2449951-1.6000061,1.105011c-8.4230042-1.5400085-16.8930054,4.6099854-20.2170105,11.447998
	c-3.0999756,6.473999-1.0929871,15.2059937,0.6710205,18.4400024c0.303009,0.5559998,0.1879883,1.2449951-0.2780151,1.6729736
	c-0.4660034,0.428009-1.1640015,0.4790039-1.690979,0.1300049c-4.8250122-3.21698-11.3770142-1.8029785-15.2430115,3.2870178
	c-3.9089966,5.0639954-1.4700012,11.9419861-0.493988,13.242981c0.2789917,0.3739929,0.3509827,0.8640137,0.1889954,1.302002
	c-0.1620178,0.4380188-0.5350037,0.7650146-0.9909973,0.8650208c-0.3250122,0.071991-0.7109985,0.4449768-1.0599976,1.0229797
	c-1.2340088,2.0450134-1.6440125,5.8919983-0.9130249,8.572998c3.7780151,13.6360168,20.4690247,10.8990173,25.9520264,10.0050049
	c0.7459717-0.1239929,1.4549866,0.3850098,1.5779724,1.1350098c0.1230164,0.7489929-0.3849792,1.4559937-1.1349792,1.5780029
	C380.5620117,385.9899902,377.5629883,386.2569885,374.82901,386.2569885z M53.5999985,367.0750122
	c-0.218998,0-0.4399986-0.053009-0.6469994-0.1630249c-0.6689987-0.3559875-0.9220009-1.1889954-0.5659981-1.8589783
	c0.2509995-0.4720154,6.0469971-11.6260071-2.8930016-16.9730225c-9.2770004-5.4549866-20.6669998,2.7450256-20.7809982,2.8280029
	c-0.6120014,0.4490051-1.4720001,0.3150024-1.9210014-0.2949829c-0.4489994-0.6119995-0.3180008-1.4720154,0.2929993-1.9210205
	c0.5230007-0.3869934,12.9540024-9.3629761,23.8120003-2.9779968c8.9669991,5.3619995,6.480999,15.8420105,3.9150009,20.6350098
	C54.5639992,366.8120117,54.0900002,367.0750122,53.5999985,367.0750122z M276.2000122,359.1749878
	c-0.7580261,0-1.3730164-0.6119995-1.375-1.3710022L274.723999,325.70401
	c-0.0020142-0.7590027,0.6109924-1.3770142,1.3710022-1.3789978h0.0039978c0.7579956,0,1.3729858,0.6119995,1.375,1.3710022
	l0.1010132,32.0999756c0.0019836,0.7590027-0.6110229,1.3770142-1.3710022,1.3789978H276.2000122z M395.2980042,357.7749939
	c-0.7090149,0-1.3110046-0.5449829-1.3680115-1.2649841c-0.5769958-7.1570129,1.4429932-14.3269958,5.4049988-19.1800232
	c2.5639954-3.223999,5.9930115-5.2609863,9.3959961-5.5769958c1.82901-0.1679993,3.6190186,0.1520081,5.2860107,0.9400024
	c0.1069946-0.1539917,0.2149963-0.2969971,0.3120117-0.427002l0.0690002-0.09198
	c1.4140015-1.7420044,3.1300049-3.5740051,5.3869934-4.2870178c3.0610046-0.9429932,6.5549927,0.2919922,8.7019958,3.0700073
	c0.4649963,0.6010132,0.3540039,1.4649963-0.2470093,1.9289856c-0.598999,0.4640198-1.4649963,0.3540039-1.9289856-0.2469788
	c-1.428009-1.8470154-3.7709961-2.723999-5.7080078-2.1260071c-1.5509949,0.4890137-2.8569946,1.8999939-4.0369873,3.3529968
	l-0.0410156,0.0559998c-0.0509949,0.0670166-0.1149902,0.1520081-0.1799927,0.2420044
	c0.1180115,0.0960083,0.2359924,0.1940002,0.3529968,0.2950134c0.5740051,0.4969788,0.6380005,1.3649902,0.1409912,1.9389954
	c-0.4969788,0.5739746-1.3649902,0.6369934-1.9389954,0.1409912c-1.7980042-1.5570068-3.7839966-2.2420044-5.9140015-2.0480042
	c-2.6619873,0.2470093-5.3979797,1.9110107-7.5099792,4.5639954c-3.4820251,4.2650146-5.3200073,10.8630066-4.8070068,17.2330017
	c0.0619812,0.757019-0.5030212,1.4200134-1.2600098,1.480011
	C395.3729858,357.7739868,395.3349915,357.7749939,395.2980042,357.7749939z M264.5,345.5750122
	c-0.7539978,0-1.367981-0.6070251-1.375-1.3619995l-0.2000122-21.1010132
	c-0.0069885-0.7590027,0.6030273-1.381012,1.3619995-1.3880005c0.7460327-0.0289917,1.381012,0.6040039,1.3880005,1.3619995
	L265.875,344.1870117c0.007019,0.7590027-0.6029968,1.3809814-1.3619995,1.3880005H264.5z M404.3980103,320.9750061
	c-0.6950073,0-1.2920227-0.526001-1.3650208-1.2330017c-0.2949829-2.8430176,1.0010071-5.9429932,3.7490234-8.9660034
	c3.1949768-3.4240112,7.0579834-5.6080017,11.1809998-6.3299866c4.697998-0.8240051,9.3939819,0.3859863,12.5569763,3.2319946
	c0.5640259,0.5090027,0.6100159,1.3779907,0.1029968,1.9419861c-0.5089722,0.5639954-1.3789978,0.6090088-1.9419861,0.1029968
	c-2.5020142-2.2539978-6.4349976-3.2369995-10.2420044-2.5679932c-3.5299988,0.6180115-6.8599854,2.5150146-9.6329956,5.4840088
	c-1.526001,1.6799927-3.3049927,4.2380066-3.0369873,6.8190002c0.0789795,0.7550049-0.4700012,1.4309998-1.2260132,1.5090027
	C404.493988,320.9729919,404.4460144,320.9750061,404.3980103,320.9750061z M351,300.7749939
	c-0.7600098,0-1.375-0.6149902-1.375-1.375v-58.0859985c-0.0639954-0.1589966-0.1000061-0.3329926-0.1000061-0.5149994
	c0-0.1819916,0.0350037-0.3549957,0.1000061-0.5149994v-127.109993h-62.9500122v175.2259827
	c0,0.7600098-0.6149902,1.375-1.375,1.375c-0.7599792,0-1.375-0.6149902-1.375-1.375v-89.625h-13.1009827l-4.5899963,6.7020111
	c-0.4299927,0.6259918-1.2839966,0.7879944-1.9119873,0.3569946c-0.6260376-0.4290009-0.7860107-1.2850037-0.3570251-1.9109955
	l5-7.3000031c0.2569885-0.375,0.6809998-0.5980072,1.1350098-0.5980072h13.8249817v-84.2249908
	c0-0.7590027,0.6150208-1.375,1.375-1.375h9.7260132v-9.3250046c0-0.7589951,0.6149902-1.375,1.375-1.375h4.7250061v-8.625
	c0-0.7589951,0.6149902-1.375,1.375-1.375h4.3249817v-7.8249969c0-0.7590027,0.6150208-1.375,1.375-1.375h5.625V65.5
	c0-0.7590027,0.6150208-1.375,1.375-1.375h2.3250122v-6.3250008c0-0.7589989,0.6149902-1.375,1.375-1.375
	s1.375,0.6160011,1.375,1.375V64.125h2.4249878c0.7600098,0,1.375,0.6159973,1.375,1.375v15.0250015h5.625
	c0.7600098,0,1.375,0.6159973,1.375,1.375v7.8249969h4.2250061c0.7600098,0,1.375,0.6160049,1.375,1.375v8.625h4.8250122
	c0.7599792,0,1.375,0.6160049,1.375,1.375v9.3250046H351c0.7600098,0,1.375,0.6159973,1.375,1.375v84.2249908h21.7250061
	c0.4539795,0,0.8779907,0.223999,1.1349792,0.5980072l5,7.3000031c0.4290161,0.6259918,0.2690125,1.4819946-0.3569946,1.9109955
	c-0.6300049,0.4290009-1.4830017,0.2689972-1.9119873-0.3569946l-4.5899963-6.7020111h-21v40.6500092h58.723999
	c0.7599792,0,1.375,0.6149902,1.375,1.375V277.5c0,0.7600098-0.6150208,1.375-1.375,1.375c-0.7600098,0-1.375-0.6149902-1.375-1.375
	v-23.125h-10.6490173v13.8250122c0,0.7600098-0.6149902,1.375-1.375,1.375c-0.7599792,0-1.375-0.6149902-1.375-1.375V254.375h-8.25
	v13.8250122c0,0.7600098-0.6149902,1.375-1.375,1.375c-0.7599792,0-1.375-0.6149902-1.375-1.375V254.375h-8.25v13.8250122
	c0,0.7600098-0.6149902,1.375-1.375,1.375c-0.7599792,0-1.375-0.6149902-1.375-1.375V254.375h-8.25v13.8250122
	c0,0.7600098-0.6149902,1.375-1.375,1.375c-0.7599792,0-1.375-0.6149902-1.375-1.375V254.375h-10.9499817v45.0249939
	C352.375,300.1600037,351.7600098,300.7749939,351,300.7749939z M352.375,251.625h57.3500061v-9.4499969H352.375V251.625z
	 M297.7749939,110.4250031H340.125v-7.9500046h-42.3500061V110.4250031z M303.875,99.7249985h30.0499878v-7.25H303.875V99.7249985z
	 M309.5750122,89.7249985h18.75v-6.4499969h-18.75V89.7249985z M316.5750122,80.5250015h4.75V66.875h-4.75V80.5250015z
	 M329.2000122,290.375c-0.7600098,0-1.375-0.6149902-1.375-1.375v-9.125h-5.8510132V289
	c0,0.8269958-0.7810059,1.4790039-1.5740051,1.3599854c-0.802002,0.1190186-1.5749817-0.5329895-1.5749817-1.3599854v-15.2250061
	h-5.8510132V289c0,0.7600098-0.6149902,1.375-1.375,1.375s-1.375-0.6149902-1.375-1.375v-16.6000061
	c0-0.7599792,0.6149902-1.375,1.375-1.375h8.6010132c0.7599792,0,1.375,0.6150208,1.375,1.375V277.125h7.625
	c0.7599792,0,1.375,0.6149902,1.375,1.375V289C330.5750122,289.7600098,329.9599915,290.375,329.2000122,290.375z
	 M159.8000031,115.7750015c-0.7590027,0-1.375-0.6160049-1.375-1.375v-12.3000031c0-0.7589951,0.6159973-1.375,1.375-1.375
	s1.375,0.6160049,1.375,1.375v12.3000031C161.1750031,115.1589966,160.5590057,115.7750015,159.8000031,115.7750015z"/>
<path class="st8" d="M371.6000061,310.9750061c-0.7600098,0-1.375-0.6150208-1.375-1.375v-31.8000183
	c0-0.7600098,0.6149902-1.375,1.375-1.375h66.1000061c0.7599792,0,1.375,0.6149902,1.375,1.375s-0.6150208,1.375-1.375,1.375
	H372.973999v30.4250183C372.9750061,310.3590088,372.3590088,310.9750061,371.6000061,310.9750061z"/>
</svg>
